<svg xmlns="http://www.w3.org/2000/svg" viewBox="0 0 1440 600" preserveAspectRatio="none"><path fill="#8FA58F" d="M0 600 L0 120.7 L12 121.8 L24 123.7 L36 126.4 L48 130.1 L60 134.8 L72 140.3 L84 146.3 L96 152.5 L108 158.4 L120 163.8 L132 168.2 L144 171.5 L156 173.6 L168 174.8 L180 175.3 L192 175.4 L204 175.7 L216 176.3 L228 177.7 L240 180.0 L252 183.3 L264 187.3 L276 191.9 L288 196.9 L300 201.9 L312 206.8 L324 211.4 L336 215.7 L348 219.9 L360 224.0 L372 228.3 L384 233.0 L396 238.2 L408 243.9 L420 249.9 L432 256.0 L444 261.9 L456 267.0 L468 271.2 L480 273.9 L492 275.1 L504 274.7 L516 272.9 L528 270.0 L540 266.2 L552 262.2 L564 258.2 L576 254.7 L588 251.8 L600 249.6 L612 248.2 L624 247.2 L636 246.6 L648 246.1 L660 245.6 L672 244.9 L684 244.1 L696 243.4 L708 242.9 L720 242.9 L732 243.6 L744 245.2 L756 247.7 L768 251.1 L780 255.0 L792 259.2 L804 263.2 L816 266.7 L828 269.2 L840 270.7 L852 271.0 L864 270.2 L876 268.6 L888 266.5 L900 264.4 L912 262.6 L924 261.4 L936 261.1 L948 261.7 L960 263.1 L972 265.3 L984 267.9 L996 270.7 L1008 273.5 L1020 276.3 L1032 278.9 L1044 281.5 L1056 284.2 L1068 287.4 L1080 291.1 L1092 295.6 L1104 300.7 L1116 306.6 L1128 312.7 L1140 318.9 L1152 324.7 L1164 329.5 L1176 333.2 L1188 335.3 L1200 335.8 L1212 334.7 L1224 332.2 L1236 328.7 L1248 324.5 L1260 320.0 L1272 315.6 L1284 311.5 L1296 307.7 L1308 304.4 L1320 301.2 L1332 298.1 L1344 294.8 L1356 291.1 L1368 287.1 L1380 282.6 L1392 277.9 L1404 273.1 L1416 268.6 L1428 264.6 L1440 261.3 L1440 600 Z"/></svg>
